<mxfile host="Electron" modified="2024-02-19T23:03:00.110Z" agent="Mozilla/5.0 (Windows NT 10.0; Win64; x64) AppleWebKit/537.36 (KHTML, like Gecko) draw.io/22.1.18 Chrome/120.0.6099.199 Electron/28.1.2 Safari/537.36" etag="6SalqzZplHnV0b-7oID_" version="22.1.18" type="device">
  <diagram name="Page-1" id="r7yUffq-W_z64B7sUxZy">
    <mxGraphModel dx="2442" dy="2124" grid="1" gridSize="10" guides="1" tooltips="1" connect="1" arrows="1" fold="1" page="1" pageScale="1" pageWidth="827" pageHeight="1169" math="0" shadow="0">
      <root>
        <mxCell id="0" />
        <mxCell id="1" parent="0" />
        <mxCell id="exQoNpuggWTd6QfUsrgI-29" value="" style="rounded=0;whiteSpace=wrap;html=1;fillColor=#008a00;fontColor=#ffffff;strokeColor=#005700;fontSize=16;" parent="1" vertex="1">
          <mxGeometry x="-380" y="20" width="1180" height="630" as="geometry" />
        </mxCell>
        <mxCell id="exQoNpuggWTd6QfUsrgI-3" value="" style="edgeStyle=orthogonalEdgeStyle;rounded=0;orthogonalLoop=1;jettySize=auto;html=1;entryX=0.1;entryY=0.5;entryDx=0;entryDy=0;entryPerimeter=0;fontSize=16;" parent="1" source="exQoNpuggWTd6QfUsrgI-1" target="exQoNpuggWTd6QfUsrgI-41" edge="1">
          <mxGeometry relative="1" as="geometry">
            <mxPoint x="300" y="80" as="targetPoint" />
          </mxGeometry>
        </mxCell>
        <mxCell id="exQoNpuggWTd6QfUsrgI-5" value="" style="edgeStyle=orthogonalEdgeStyle;rounded=0;orthogonalLoop=1;jettySize=auto;html=1;entryX=0.5;entryY=0;entryDx=0;entryDy=0;entryPerimeter=0;fontSize=16;" parent="1" source="exQoNpuggWTd6QfUsrgI-1" target="exQoNpuggWTd6QfUsrgI-34" edge="1">
          <mxGeometry relative="1" as="geometry">
            <mxPoint x="160" y="160" as="targetPoint" />
          </mxGeometry>
        </mxCell>
        <mxCell id="exQoNpuggWTd6QfUsrgI-1" value="Finance" style="rounded=0;whiteSpace=wrap;html=1;fontSize=16;" parent="1" vertex="1">
          <mxGeometry x="100" y="50" width="120" height="60" as="geometry" />
        </mxCell>
        <mxCell id="exQoNpuggWTd6QfUsrgI-8" value="" style="edgeStyle=orthogonalEdgeStyle;rounded=0;orthogonalLoop=1;jettySize=auto;html=1;entryX=0.1;entryY=0.5;entryDx=0;entryDy=0;entryPerimeter=0;fontSize=16;" parent="1" source="exQoNpuggWTd6QfUsrgI-6" target="exQoNpuggWTd6QfUsrgI-42" edge="1">
          <mxGeometry relative="1" as="geometry">
            <mxPoint x="660" y="80" as="targetPoint" />
          </mxGeometry>
        </mxCell>
        <mxCell id="exQoNpuggWTd6QfUsrgI-10" value="" style="edgeStyle=orthogonalEdgeStyle;rounded=0;orthogonalLoop=1;jettySize=auto;html=1;entryX=0.5;entryY=0;entryDx=0;entryDy=0;entryPerimeter=0;fontSize=16;" parent="1" source="exQoNpuggWTd6QfUsrgI-6" target="exQoNpuggWTd6QfUsrgI-35" edge="1">
          <mxGeometry relative="1" as="geometry">
            <mxPoint x="530" y="150" as="targetPoint" />
          </mxGeometry>
        </mxCell>
        <mxCell id="exQoNpuggWTd6QfUsrgI-6" value="HR" style="rounded=0;whiteSpace=wrap;html=1;fontSize=16;" parent="1" vertex="1">
          <mxGeometry x="470" y="50" width="120" height="60" as="geometry" />
        </mxCell>
        <mxCell id="exQoNpuggWTd6QfUsrgI-15" value="" style="edgeStyle=orthogonalEdgeStyle;rounded=0;orthogonalLoop=1;jettySize=auto;html=1;entryX=0.1;entryY=0.5;entryDx=0;entryDy=0;entryPerimeter=0;fontSize=16;" parent="1" source="exQoNpuggWTd6QfUsrgI-11" target="exQoNpuggWTd6QfUsrgI-39" edge="1">
          <mxGeometry relative="1" as="geometry">
            <mxPoint x="300" y="320" as="targetPoint" />
          </mxGeometry>
        </mxCell>
        <mxCell id="exQoNpuggWTd6QfUsrgI-17" value="" style="edgeStyle=orthogonalEdgeStyle;rounded=0;orthogonalLoop=1;jettySize=auto;html=1;entryX=0.5;entryY=0;entryDx=0;entryDy=0;entryPerimeter=0;fontSize=16;" parent="1" source="exQoNpuggWTd6QfUsrgI-11" target="exQoNpuggWTd6QfUsrgI-32" edge="1">
          <mxGeometry relative="1" as="geometry">
            <mxPoint x="160" y="410" as="targetPoint" />
          </mxGeometry>
        </mxCell>
        <mxCell id="exQoNpuggWTd6QfUsrgI-11" value="Technology" style="rounded=0;whiteSpace=wrap;html=1;fontSize=16;" parent="1" vertex="1">
          <mxGeometry x="100" y="290" width="120" height="60" as="geometry" />
        </mxCell>
        <mxCell id="exQoNpuggWTd6QfUsrgI-20" value="" style="edgeStyle=orthogonalEdgeStyle;rounded=0;orthogonalLoop=1;jettySize=auto;html=1;entryX=0.1;entryY=0.5;entryDx=0;entryDy=0;entryPerimeter=0;fontSize=16;" parent="1" source="exQoNpuggWTd6QfUsrgI-18" target="exQoNpuggWTd6QfUsrgI-38" edge="1">
          <mxGeometry relative="1" as="geometry">
            <mxPoint x="670" y="320" as="targetPoint" />
          </mxGeometry>
        </mxCell>
        <mxCell id="exQoNpuggWTd6QfUsrgI-22" value="" style="edgeStyle=orthogonalEdgeStyle;rounded=0;orthogonalLoop=1;jettySize=auto;html=1;entryX=0.5;entryY=0;entryDx=0;entryDy=0;entryPerimeter=0;fontSize=16;" parent="1" source="exQoNpuggWTd6QfUsrgI-18" target="exQoNpuggWTd6QfUsrgI-33" edge="1">
          <mxGeometry relative="1" as="geometry">
            <mxPoint x="530" y="400" as="targetPoint" />
          </mxGeometry>
        </mxCell>
        <mxCell id="exQoNpuggWTd6QfUsrgI-18" value="Marketing" style="rounded=0;whiteSpace=wrap;html=1;fontSize=16;" parent="1" vertex="1">
          <mxGeometry x="470" y="290" width="120" height="60" as="geometry" />
        </mxCell>
        <mxCell id="exQoNpuggWTd6QfUsrgI-24" style="edgeStyle=orthogonalEdgeStyle;rounded=0;orthogonalLoop=1;jettySize=auto;html=1;exitX=0.5;exitY=0;exitDx=0;exitDy=0;entryX=0.5;entryY=1;entryDx=0;entryDy=0;entryPerimeter=0;fontSize=16;" parent="1" source="exQoNpuggWTd6QfUsrgI-23" target="exQoNpuggWTd6QfUsrgI-33" edge="1">
          <mxGeometry relative="1" as="geometry">
            <mxPoint x="530" y="520" as="targetPoint" />
          </mxGeometry>
        </mxCell>
        <mxCell id="exQoNpuggWTd6QfUsrgI-26" value="" style="edgeStyle=orthogonalEdgeStyle;rounded=0;orthogonalLoop=1;jettySize=auto;html=1;entryX=0.1;entryY=0.5;entryDx=0;entryDy=0;entryPerimeter=0;fontSize=16;" parent="1" source="exQoNpuggWTd6QfUsrgI-23" target="exQoNpuggWTd6QfUsrgI-40" edge="1">
          <mxGeometry relative="1" as="geometry">
            <mxPoint x="660" y="580" as="targetPoint" />
          </mxGeometry>
        </mxCell>
        <mxCell id="exQoNpuggWTd6QfUsrgI-23" value="Sales" style="rounded=0;whiteSpace=wrap;html=1;fontSize=16;" parent="1" vertex="1">
          <mxGeometry x="470" y="560" width="120" height="60" as="geometry" />
        </mxCell>
        <mxCell id="exQoNpuggWTd6QfUsrgI-30" value="ADMIN BUILDING" style="rounded=0;whiteSpace=wrap;html=1;fontSize=16;" parent="1" vertex="1">
          <mxGeometry x="380" y="-30" width="120" height="60" as="geometry" />
        </mxCell>
        <mxCell id="exQoNpuggWTd6QfUsrgI-32" value="60 Servers" style="shape=cylinder3;whiteSpace=wrap;html=1;boundedLbl=1;backgroundOutline=1;size=15;fontSize=16;" parent="1" vertex="1">
          <mxGeometry x="130" y="420" width="60" height="80" as="geometry" />
        </mxCell>
        <mxCell id="exQoNpuggWTd6QfUsrgI-33" value="1 Server" style="shape=cylinder3;whiteSpace=wrap;html=1;boundedLbl=1;backgroundOutline=1;size=15;fontSize=16;" parent="1" vertex="1">
          <mxGeometry x="500" y="420" width="60" height="80" as="geometry" />
        </mxCell>
        <mxCell id="exQoNpuggWTd6QfUsrgI-34" value="1 Server" style="shape=cylinder3;whiteSpace=wrap;html=1;boundedLbl=1;backgroundOutline=1;size=15;fontSize=16;" parent="1" vertex="1">
          <mxGeometry x="130" y="180" width="60" height="80" as="geometry" />
        </mxCell>
        <mxCell id="exQoNpuggWTd6QfUsrgI-35" value="1 Server" style="shape=cylinder3;whiteSpace=wrap;html=1;boundedLbl=1;backgroundOutline=1;size=15;fontSize=16;" parent="1" vertex="1">
          <mxGeometry x="500" y="180" width="60" height="80" as="geometry" />
        </mxCell>
        <mxCell id="exQoNpuggWTd6QfUsrgI-36" value="INTERNET" style="ellipse;shape=cloud;whiteSpace=wrap;html=1;fillColor=#1ba1e2;fontColor=#ffffff;strokeColor=#006EAF;fontSize=16;" parent="1" vertex="1">
          <mxGeometry x="-790" y="260" width="120" height="80" as="geometry" />
        </mxCell>
        <mxCell id="exQoNpuggWTd6QfUsrgI-37" value="" style="rounded=0;whiteSpace=wrap;html=1;fillColor=#008a00;fontColor=#ffffff;strokeColor=#005700;fontSize=16;" parent="1" vertex="1">
          <mxGeometry x="80" y="850" width="420" height="320" as="geometry" />
        </mxCell>
        <mxCell id="exQoNpuggWTd6QfUsrgI-38" value="15" style="shape=actor;whiteSpace=wrap;html=1;fontSize=16;" parent="1" vertex="1">
          <mxGeometry x="690" y="290" width="40" height="60" as="geometry" />
        </mxCell>
        <mxCell id="exQoNpuggWTd6QfUsrgI-39" value="30" style="shape=actor;whiteSpace=wrap;html=1;fontSize=16;" parent="1" vertex="1">
          <mxGeometry x="320" y="290" width="40" height="60" as="geometry" />
        </mxCell>
        <mxCell id="exQoNpuggWTd6QfUsrgI-40" value="10" style="shape=actor;whiteSpace=wrap;html=1;fontSize=16;" parent="1" vertex="1">
          <mxGeometry x="690" y="560" width="40" height="60" as="geometry" />
        </mxCell>
        <mxCell id="exQoNpuggWTd6QfUsrgI-41" value="20" style="shape=actor;whiteSpace=wrap;html=1;fontSize=16;" parent="1" vertex="1">
          <mxGeometry x="320" y="50" width="40" height="60" as="geometry" />
        </mxCell>
        <mxCell id="exQoNpuggWTd6QfUsrgI-42" value="10" style="shape=actor;whiteSpace=wrap;html=1;fontSize=16;" parent="1" vertex="1">
          <mxGeometry x="690" y="50" width="40" height="60" as="geometry" />
        </mxCell>
        <mxCell id="exQoNpuggWTd6QfUsrgI-43" value="CIRCULATOING COIN PRODUCTION" style="rounded=0;whiteSpace=wrap;html=1;fontSize=16;" parent="1" vertex="1">
          <mxGeometry x="330" y="800" width="120" height="60" as="geometry" />
        </mxCell>
        <mxCell id="exQoNpuggWTd6QfUsrgI-44" value="FIREWALL" style="shape=cube;whiteSpace=wrap;html=1;boundedLbl=1;backgroundOutline=1;darkOpacity=0.05;darkOpacity2=0.1;fillColor=#a20025;fontColor=#ffffff;strokeColor=#6F0000;fontSize=16;" parent="1" vertex="1">
          <mxGeometry x="-330" y="270" width="120" height="80" as="geometry" />
        </mxCell>
        <mxCell id="exQoNpuggWTd6QfUsrgI-45" value="" style="shape=flexArrow;endArrow=classic;startArrow=classic;html=1;rounded=0;exitX=0.875;exitY=0.5;exitDx=0;exitDy=0;exitPerimeter=0;entryX=0;entryY=0;entryDx=0;entryDy=30;entryPerimeter=0;fillColor=#6a00ff;strokeColor=#3700CC;fontSize=16;" parent="1" source="exQoNpuggWTd6QfUsrgI-36" target="exQoNpuggWTd6QfUsrgI-44" edge="1">
          <mxGeometry width="100" height="100" relative="1" as="geometry">
            <mxPoint x="-500" y="299.52" as="sourcePoint" />
            <mxPoint x="-410" y="300" as="targetPoint" />
          </mxGeometry>
        </mxCell>
        <mxCell id="exQoNpuggWTd6QfUsrgI-46" value="300" style="shape=actor;whiteSpace=wrap;html=1;fontSize=16;" parent="1" vertex="1">
          <mxGeometry x="350" y="950" width="40" height="60" as="geometry" />
        </mxCell>
        <mxCell id="exQoNpuggWTd6QfUsrgI-48" value="20 OT Devices" style="shape=hexagon;perimeter=hexagonPerimeter2;whiteSpace=wrap;html=1;fixedSize=1;fontSize=16;" parent="1" vertex="1">
          <mxGeometry x="120" y="940" width="120" height="80" as="geometry" />
        </mxCell>
        <mxCell id="exQoNpuggWTd6QfUsrgI-50" value="20 PC" style="shape=dataStorage;whiteSpace=wrap;html=1;fixedSize=1;" parent="1" vertex="1">
          <mxGeometry x="230" y="1060" width="100" height="80" as="geometry" />
        </mxCell>
        <mxCell id="exQoNpuggWTd6QfUsrgI-53" value="" style="shape=flexArrow;endArrow=classic;startArrow=classic;html=1;rounded=0;exitX=0.25;exitY=0;exitDx=0;exitDy=0;entryX=0.476;entryY=1.016;entryDx=0;entryDy=0;entryPerimeter=0;fillColor=#6a00ff;strokeColor=#3700CC;" parent="1" source="exQoNpuggWTd6QfUsrgI-37" target="exQoNpuggWTd6QfUsrgI-29" edge="1">
          <mxGeometry width="100" height="100" relative="1" as="geometry">
            <mxPoint x="180" y="750" as="sourcePoint" />
            <mxPoint x="180" y="670" as="targetPoint" />
          </mxGeometry>
        </mxCell>
        <mxCell id="exQoNpuggWTd6QfUsrgI-54" value="FIBRE CONNECTION" style="text;html=1;align=center;verticalAlign=middle;resizable=0;points=[];autosize=1;strokeColor=none;fillColor=none;" parent="1" vertex="1">
          <mxGeometry x="120" y="718" width="140" height="30" as="geometry" />
        </mxCell>
        <mxCell id="exQoNpuggWTd6QfUsrgI-60" value="" style="rounded=0;whiteSpace=wrap;html=1;fillColor=#008a00;fontColor=#ffffff;strokeColor=#005700;fontSize=16;" parent="1" vertex="1">
          <mxGeometry x="1050" y="845" width="420" height="325" as="geometry" />
        </mxCell>
        <mxCell id="exQoNpuggWTd6QfUsrgI-61" value="SECURITY LODGE" style="rounded=0;whiteSpace=wrap;html=1;fontSize=16;" parent="1" vertex="1">
          <mxGeometry x="1300" y="795" width="120" height="60" as="geometry" />
        </mxCell>
        <mxCell id="exQoNpuggWTd6QfUsrgI-62" value="50" style="shape=actor;whiteSpace=wrap;html=1;fontSize=16;" parent="1" vertex="1">
          <mxGeometry x="1390" y="952.5" width="40" height="60" as="geometry" />
        </mxCell>
        <mxCell id="exQoNpuggWTd6QfUsrgI-64" value="5 PC" style="shape=dataStorage;whiteSpace=wrap;html=1;fixedSize=1;" parent="1" vertex="1">
          <mxGeometry x="1230" y="965" width="100" height="80" as="geometry" />
        </mxCell>
        <mxCell id="exQoNpuggWTd6QfUsrgI-65" value="" style="shape=flexArrow;endArrow=classic;startArrow=classic;html=1;rounded=0;exitX=1;exitY=0.5;exitDx=0;exitDy=0;entryX=0;entryY=0.5;entryDx=0;entryDy=0;fillColor=#6a00ff;strokeColor=#3700CC;" parent="1" source="exQoNpuggWTd6QfUsrgI-37" target="exQoNpuggWTd6QfUsrgI-60" edge="1">
          <mxGeometry width="100" height="100" relative="1" as="geometry">
            <mxPoint x="688" y="1010" as="sourcePoint" />
            <mxPoint x="690" y="811" as="targetPoint" />
          </mxGeometry>
        </mxCell>
        <mxCell id="exQoNpuggWTd6QfUsrgI-66" value="FIBRE CONNECTION" style="text;html=1;align=center;verticalAlign=middle;resizable=0;points=[];autosize=1;strokeColor=none;fillColor=none;" parent="1" vertex="1">
          <mxGeometry x="730" y="980" width="140" height="30" as="geometry" />
        </mxCell>
        <mxCell id="exQoNpuggWTd6QfUsrgI-67" value="" style="rounded=0;whiteSpace=wrap;html=1;fillColor=#008a00;fontColor=#ffffff;strokeColor=#005700;fontSize=16;" parent="1" vertex="1">
          <mxGeometry x="1080" y="325" width="420" height="325" as="geometry" />
        </mxCell>
        <mxCell id="exQoNpuggWTd6QfUsrgI-68" value="PRECIOUS METAL RECOVERY" style="rounded=0;whiteSpace=wrap;html=1;fontSize=16;" parent="1" vertex="1">
          <mxGeometry x="1330" y="275" width="120" height="60" as="geometry" />
        </mxCell>
        <mxCell id="exQoNpuggWTd6QfUsrgI-69" value="100" style="shape=actor;whiteSpace=wrap;html=1;fontSize=16;" parent="1" vertex="1">
          <mxGeometry x="1350" y="425" width="40" height="60" as="geometry" />
        </mxCell>
        <mxCell id="exQoNpuggWTd6QfUsrgI-70" value="10 PC" style="shape=dataStorage;whiteSpace=wrap;html=1;fixedSize=1;" parent="1" vertex="1">
          <mxGeometry x="1160" y="425" width="100" height="80" as="geometry" />
        </mxCell>
        <mxCell id="exQoNpuggWTd6QfUsrgI-71" value="" style="rounded=0;whiteSpace=wrap;html=1;fillColor=#008a00;fontColor=#ffffff;strokeColor=#005700;fontSize=16;" parent="1" vertex="1">
          <mxGeometry x="-770" y="842.5" width="420" height="325" as="geometry" />
        </mxCell>
        <mxCell id="exQoNpuggWTd6QfUsrgI-72" value="MUSEUM" style="rounded=0;whiteSpace=wrap;html=1;fontSize=16;" parent="1" vertex="1">
          <mxGeometry x="-520" y="792.5" width="120" height="60" as="geometry" />
        </mxCell>
        <mxCell id="exQoNpuggWTd6QfUsrgI-73" value="10" style="shape=actor;whiteSpace=wrap;html=1;fontSize=16;" parent="1" vertex="1">
          <mxGeometry x="-500" y="942.5" width="40" height="60" as="geometry" />
        </mxCell>
        <mxCell id="exQoNpuggWTd6QfUsrgI-74" value="4 Tills" style="shape=dataStorage;whiteSpace=wrap;html=1;fixedSize=1;" parent="1" vertex="1">
          <mxGeometry x="-690" y="942.5" width="100" height="80" as="geometry" />
        </mxCell>
        <mxCell id="exQoNpuggWTd6QfUsrgI-75" value="" style="shape=flexArrow;endArrow=classic;startArrow=classic;html=1;rounded=0;fillColor=#6a00ff;strokeColor=#3700CC;entryX=0;entryY=0.5;entryDx=0;entryDy=0;" parent="1" source="exQoNpuggWTd6QfUsrgI-71" target="exQoNpuggWTd6QfUsrgI-37" edge="1">
          <mxGeometry width="100" height="100" relative="1" as="geometry">
            <mxPoint x="-330" y="1004.5" as="sourcePoint" />
            <mxPoint x="90" y="1003" as="targetPoint" />
          </mxGeometry>
        </mxCell>
        <mxCell id="exQoNpuggWTd6QfUsrgI-76" value="FIBRE CONNECTION" style="text;html=1;align=center;verticalAlign=middle;resizable=0;points=[];autosize=1;strokeColor=none;fillColor=none;" parent="1" vertex="1">
          <mxGeometry x="-220" y="970" width="140" height="30" as="geometry" />
        </mxCell>
        <mxCell id="exQoNpuggWTd6QfUsrgI-77" value="10 OT Devices" style="shape=hexagon;perimeter=hexagonPerimeter2;whiteSpace=wrap;html=1;fixedSize=1;fontSize=16;" parent="1" vertex="1">
          <mxGeometry x="1260" y="540" width="120" height="80" as="geometry" />
        </mxCell>
        <mxCell id="exQoNpuggWTd6QfUsrgI-78" value="" style="shape=flexArrow;endArrow=classic;startArrow=classic;html=1;rounded=0;exitX=0.25;exitY=0;exitDx=0;exitDy=0;entryX=0.361;entryY=1.001;entryDx=0;entryDy=0;entryPerimeter=0;fillColor=#6a00ff;strokeColor=#3700CC;" parent="1" edge="1">
          <mxGeometry width="100" height="100" relative="1" as="geometry">
            <mxPoint x="1225" y="845" as="sourcePoint" />
            <mxPoint x="1227" y="646" as="targetPoint" />
          </mxGeometry>
        </mxCell>
        <mxCell id="exQoNpuggWTd6QfUsrgI-79" value="FIBRE CONNECTION" style="text;html=1;align=center;verticalAlign=middle;resizable=0;points=[];autosize=1;strokeColor=none;fillColor=none;" parent="1" vertex="1">
          <mxGeometry x="1160" y="713" width="140" height="30" as="geometry" />
        </mxCell>
        <mxCell id="exQoNpuggWTd6QfUsrgI-81" style="edgeStyle=orthogonalEdgeStyle;rounded=0;orthogonalLoop=1;jettySize=auto;html=1;exitX=0.5;exitY=0;exitDx=0;exitDy=0;entryX=0;entryY=0.5;entryDx=0;entryDy=0;strokeWidth=5;" parent="1" source="exQoNpuggWTd6QfUsrgI-80" target="exQoNpuggWTd6QfUsrgI-1" edge="1">
          <mxGeometry relative="1" as="geometry" />
        </mxCell>
        <mxCell id="exQoNpuggWTd6QfUsrgI-82" style="edgeStyle=orthogonalEdgeStyle;rounded=0;orthogonalLoop=1;jettySize=auto;html=1;exitX=1;exitY=0;exitDx=0;exitDy=0;entryX=0;entryY=0.5;entryDx=0;entryDy=0;strokeWidth=4;" parent="1" source="exQoNpuggWTd6QfUsrgI-80" target="exQoNpuggWTd6QfUsrgI-6" edge="1">
          <mxGeometry relative="1" as="geometry" />
        </mxCell>
        <mxCell id="exQoNpuggWTd6QfUsrgI-83" style="edgeStyle=orthogonalEdgeStyle;rounded=0;orthogonalLoop=1;jettySize=auto;html=1;exitX=1;exitY=0.5;exitDx=0;exitDy=0;entryX=0;entryY=0.5;entryDx=0;entryDy=0;strokeWidth=4;" parent="1" source="exQoNpuggWTd6QfUsrgI-80" target="exQoNpuggWTd6QfUsrgI-11" edge="1">
          <mxGeometry relative="1" as="geometry" />
        </mxCell>
        <mxCell id="exQoNpuggWTd6QfUsrgI-80" value="ROUTER" style="ellipse;whiteSpace=wrap;html=1;fillColor=#e3c800;fontColor=#000000;strokeColor=#B09500;" parent="1" vertex="1">
          <mxGeometry x="-170" y="280" width="120" height="80" as="geometry" />
        </mxCell>
        <mxCell id="TAJMVE1NWLni4-ESnmPy-22" value="INTERNET" style="ellipse;shape=cloud;whiteSpace=wrap;html=1;fillColor=#1ba1e2;fontColor=#ffffff;strokeColor=#006EAF;fontSize=16;" parent="1" vertex="1">
          <mxGeometry x="2240" y="-290" width="120" height="80" as="geometry" />
        </mxCell>
        <mxCell id="FXw4Os1aEV76UC7jO4sY-3" style="edgeStyle=orthogonalEdgeStyle;rounded=0;orthogonalLoop=1;jettySize=auto;html=1;exitX=0;exitY=0;exitDx=70;exitDy=80;exitPerimeter=0;entryX=0.5;entryY=0;entryDx=0;entryDy=0;" edge="1" parent="1" source="TAJMVE1NWLni4-ESnmPy-28" target="TAJMVE1NWLni4-ESnmPy-33">
          <mxGeometry relative="1" as="geometry" />
        </mxCell>
        <mxCell id="TAJMVE1NWLni4-ESnmPy-28" value="FIREWALL" style="shape=cube;whiteSpace=wrap;html=1;boundedLbl=1;backgroundOutline=1;darkOpacity=0.05;darkOpacity2=0.1;fillColor=#a20025;fontColor=#ffffff;strokeColor=#6F0000;fontSize=16;" parent="1" vertex="1">
          <mxGeometry x="2250" y="10" width="120" height="80" as="geometry" />
        </mxCell>
        <mxCell id="TAJMVE1NWLni4-ESnmPy-29" value="" style="shape=flexArrow;endArrow=classic;startArrow=classic;html=1;rounded=0;exitX=0.875;exitY=0.5;exitDx=0;exitDy=0;exitPerimeter=0;entryX=0;entryY=0;entryDx=0;entryDy=30;entryPerimeter=0;fillColor=#6a00ff;strokeColor=#3700CC;fontSize=16;" parent="1" source="TAJMVE1NWLni4-ESnmPy-22" target="TAJMVE1NWLni4-ESnmPy-28" edge="1">
          <mxGeometry width="100" height="100" relative="1" as="geometry">
            <mxPoint x="2030" y="289.52" as="sourcePoint" />
            <mxPoint x="2120" y="290" as="targetPoint" />
          </mxGeometry>
        </mxCell>
        <mxCell id="FXw4Os1aEV76UC7jO4sY-5" value="" style="edgeStyle=orthogonalEdgeStyle;rounded=0;orthogonalLoop=1;jettySize=auto;html=1;" edge="1" parent="1" source="TAJMVE1NWLni4-ESnmPy-33" target="FXw4Os1aEV76UC7jO4sY-4">
          <mxGeometry relative="1" as="geometry" />
        </mxCell>
        <mxCell id="FXw4Os1aEV76UC7jO4sY-7" value="" style="edgeStyle=orthogonalEdgeStyle;rounded=0;orthogonalLoop=1;jettySize=auto;html=1;" edge="1" parent="1" source="TAJMVE1NWLni4-ESnmPy-33" target="FXw4Os1aEV76UC7jO4sY-6">
          <mxGeometry relative="1" as="geometry" />
        </mxCell>
        <mxCell id="TAJMVE1NWLni4-ESnmPy-33" value="ROUTER" style="ellipse;whiteSpace=wrap;html=1;fillColor=#e3c800;fontColor=#000000;strokeColor=#B09500;" parent="1" vertex="1">
          <mxGeometry x="2260" y="260" width="120" height="80" as="geometry" />
        </mxCell>
        <mxCell id="FXw4Os1aEV76UC7jO4sY-2" value="IP Address: 10.20.24.0" style="whiteSpace=wrap;html=1;" vertex="1" parent="1">
          <mxGeometry x="2310" y="-110" width="120" height="60" as="geometry" />
        </mxCell>
        <mxCell id="FXw4Os1aEV76UC7jO4sY-4" value="FIN&lt;br&gt;10.20.24.0 / 25" style="whiteSpace=wrap;html=1;fillColor=#e3c800;strokeColor=#B09500;fontColor=#000000;" vertex="1" parent="1">
          <mxGeometry x="2560" y="270" width="120" height="60" as="geometry" />
        </mxCell>
        <mxCell id="FXw4Os1aEV76UC7jO4sY-6" value="HR" style="whiteSpace=wrap;html=1;fillColor=#e3c800;strokeColor=#B09500;fontColor=#000000;" vertex="1" parent="1">
          <mxGeometry x="1980" y="270" width="120" height="60" as="geometry" />
        </mxCell>
      </root>
    </mxGraphModel>
  </diagram>
</mxfile>
